<svg width="25" height="25" viewBox="0 0 25 25" fill="none" xmlns="http://www.w3.org/2000/svg">
<path d="M11.3009 1.48313C11.6678 0.739965 12.7275 0.739966 13.0944 1.48313L16.0852 7.54226C16.2307 7.83711 16.5119 8.04157 16.8373 8.08912L23.5272 9.06696C24.3471 9.1868 24.6739 10.1946 24.0803 10.7728L19.2411 15.4862C19.0052 15.7159 18.8976 16.0471 18.9532 16.3716L20.0951 23.0291C20.2352 23.8461 19.3777 24.4691 18.644 24.0833L12.6631 20.938C12.3717 20.7847 12.0236 20.7847 11.7322 20.938L5.75128 24.0833C5.01765 24.4691 4.16011 23.8461 4.30022 23.0291L5.44207 16.3716C5.49773 16.0471 5.39007 15.7159 5.1542 15.4862L0.314997 10.7728C-0.278596 10.1946 0.0481875 9.1868 0.868102 9.06696L7.55802 8.08912C7.88337 8.04157 8.16456 7.83711 8.3101 7.54226L11.3009 1.48313Z" fill="#FF8718"/>
</svg>
